<svg width="600" height="400" viewBox="0 0 600 400" fill="none" xmlns="http://www.w3.org/2000/svg">
<rect width="600" height="400" fill="white"/>
<path d="M161 241.909L185.983 157.091H199.862L185.742 241.909H177.535L180.069 227.49H173.19L169.086 241.909H161ZM176.328 216.221L175.362 219.493H181.517L182.121 216.221C183.971 205.962 185.46 197.763 186.586 191.624C187.793 185.404 189.966 174.62 193.104 159.272H191.535C189.04 169.611 186.989 177.811 185.379 183.869C183.77 189.847 180.753 200.631 176.328 216.221Z" fill="#1F2D16"/>
<path d="M192.916 241.909L212.468 157.091H220.916L203.295 233.791H213.071L211.261 241.909H192.916Z" fill="#1F2D16"/>
<path d="M217.729 241.909L237.281 157.091H245.729L226.178 241.909H217.729Z" fill="#1F2D16"/>
<path d="M249.83 239.486C249.186 240.698 248.342 241.586 247.296 242.152C246.33 242.717 245.163 243 243.796 243C241.864 243 240.376 242.313 239.33 240.94C238.284 239.567 237.761 237.588 237.761 235.003C237.761 232.579 238.244 228.823 239.209 223.734C240.175 218.564 241.905 210.567 244.399 199.742C247.456 186.656 249.75 177.447 251.278 172.116C252.807 166.703 254.416 162.866 256.106 160.604C257.313 158.989 258.721 157.818 260.33 157.091C262.02 156.364 264.071 156 266.485 156C269.14 156 271.192 156.767 272.641 158.302C274.089 159.837 274.813 162.018 274.813 164.845C274.813 166.623 274.531 168.965 273.968 171.873C273.485 174.701 272.6 178.942 271.313 184.596H263.709C265.319 177.73 266.324 173.247 266.727 171.146C267.129 169.046 267.33 167.511 267.33 166.542C267.33 165.572 267.089 164.845 266.606 164.361C266.204 163.876 265.56 163.634 264.675 163.634C263.951 163.634 263.307 163.795 262.744 164.118C262.181 164.442 261.738 164.967 261.416 165.694C260.773 166.986 259.888 169.773 258.761 174.054C257.715 178.336 255.744 186.858 252.847 199.621C250.192 210.93 248.342 219.049 247.296 223.976C246.33 228.823 245.847 231.933 245.847 233.306C245.847 233.953 245.968 234.478 246.209 234.882C246.451 235.205 246.813 235.366 247.296 235.366C247.778 235.366 248.181 235.205 248.502 234.882C248.905 234.558 249.227 234.114 249.468 233.549C250.031 232.499 250.796 230.237 251.761 226.763C252.727 223.209 254.175 217.635 256.106 210.042H253.692L255.623 201.318H267.692L258.158 241.909H251.64L251.761 241.304C251.842 240.981 252.365 238.921 253.33 235.124C254.376 231.247 256.629 222.886 260.089 210.042H258.158C254.939 222.967 252.928 230.721 252.123 233.306C251.399 235.891 250.635 237.951 249.83 239.486Z" fill="#1F2D16"/>
<path d="M266.396 241.909L285.948 157.091H294.396L286.189 227.369H287.637C289.971 212.586 291.419 203.418 291.982 199.864C292.626 196.228 293.189 193.361 293.672 191.26L301.517 157.091H309.965L290.413 241.909H281.965L290.292 171.631H288.723C286.39 186.171 284.902 195.461 284.258 199.5C283.614 203.458 283.011 206.568 282.448 208.83L274.844 241.909H266.396Z" fill="#1F2D16"/>
<path d="M299.1 241.909L318.652 157.091H327.462C331.405 157.091 334.301 157.858 336.152 159.393C338.083 160.928 339.049 163.311 339.049 166.542C339.049 167.915 338.847 169.894 338.445 172.479C338.043 174.983 337.439 177.932 336.635 181.325C335.428 186.575 334.503 190.089 333.859 191.866C333.215 193.563 332.411 194.936 331.445 195.986C330.56 196.955 329.474 197.682 328.186 198.167C326.979 198.571 325.411 198.813 323.479 198.894L323.117 200.348C325.773 200.429 327.704 200.994 328.911 202.045C330.198 203.095 330.842 204.71 330.842 206.891C330.842 208.184 330.64 209.921 330.238 212.102C329.916 214.283 329.232 217.635 328.186 222.159C327.301 226.036 326.336 229.227 325.29 231.731C324.244 234.155 322.997 236.134 321.548 237.669C320.181 239.123 318.491 240.213 316.479 240.94C314.548 241.586 312.054 241.909 308.997 241.909H299.1ZM331.083 168.602C331.083 167.309 330.721 166.38 329.997 165.815C329.273 165.169 328.106 164.845 326.497 164.845H325.29L317.566 198.531H318.893C320.181 198.531 321.267 198.329 322.152 197.925C323.117 197.521 323.882 196.915 324.445 196.107C324.928 195.38 325.411 194.209 325.893 192.593C326.376 190.978 327.301 187.221 328.669 181.325C329.635 177.043 330.278 174.095 330.6 172.479C330.922 170.783 331.083 169.49 331.083 168.602ZM323.238 204.589C323.238 203.216 322.836 202.247 322.031 201.681C321.307 201.116 320.02 200.833 318.169 200.833H316.962L309.359 234.155H310.807C311.933 234.155 312.899 233.993 313.704 233.67C314.508 233.347 315.232 232.903 315.876 232.337C316.681 231.529 317.405 230.156 318.048 228.217C318.692 226.279 319.577 222.926 320.704 218.16C321.75 213.556 322.433 210.365 322.755 208.588C323.077 206.811 323.238 205.478 323.238 204.589Z" fill="#1F2D16" fill-opacity="0.28"/>
<path d="M354.028 237.669C352.741 239.526 351.293 240.9 349.683 241.788C348.074 242.596 346.183 243 344.011 243C340.712 243 338.258 242.152 336.649 240.455C335.04 238.678 334.235 236.053 334.235 232.579C334.235 230.156 334.637 226.723 335.442 222.28C336.247 217.756 337.896 210.163 340.39 199.5C343.206 187.141 345.419 178.214 347.028 172.721C348.718 167.228 350.287 163.432 351.735 161.331C353.023 159.474 354.471 158.141 356.08 157.333C357.689 156.444 359.58 156 361.752 156C365.051 156 367.505 156.889 369.115 158.666C370.724 160.362 371.528 162.947 371.528 166.421C371.528 168.844 371.126 172.318 370.321 176.841C369.517 181.284 367.867 188.837 365.373 199.5C362.557 211.859 360.304 220.786 358.615 226.279C357.005 231.772 355.477 235.568 354.028 237.669ZM363.684 167.148C363.684 165.936 363.442 165.047 362.959 164.482C362.557 163.916 361.873 163.634 360.908 163.634C360.183 163.634 359.54 163.795 358.977 164.118C358.494 164.442 358.051 164.967 357.649 165.694C356.844 167.067 355.839 170.056 354.632 174.66C353.505 179.265 351.574 187.545 348.839 199.5C345.62 213.475 343.689 222.078 343.045 225.309C342.402 228.46 342.08 230.641 342.08 231.852C342.08 233.064 342.281 233.953 342.683 234.518C343.166 235.084 343.89 235.366 344.856 235.366C345.58 235.366 346.183 235.205 346.666 234.882C347.229 234.558 347.712 234.033 348.114 233.306C348.839 232.014 349.724 229.348 350.77 225.309C351.816 221.189 353.867 212.586 356.925 199.5C360.143 185.525 362.074 176.962 362.718 173.812C363.362 170.581 363.684 168.359 363.684 167.148Z" fill="#1F2D16" fill-opacity="0.28"/>
<path d="M363.801 241.909L383.353 157.091H392.646C396.589 157.091 399.526 157.898 401.457 159.514C403.388 161.13 404.353 163.634 404.353 167.026C404.353 169.369 403.871 173.004 402.905 177.932C402.02 182.779 400.491 189.968 398.319 199.5C395.1 213.556 392.767 223.047 391.319 227.975C389.871 232.822 388.302 236.134 386.612 237.911C385.244 239.365 383.595 240.415 381.664 241.061C379.813 241.627 377.238 241.909 373.939 241.909H363.801ZM396.267 168.723C396.267 167.269 395.905 166.259 395.181 165.694C394.537 165.128 393.411 164.845 391.802 164.845H389.991L374.06 234.155H376.112C377.399 234.155 378.405 234.033 379.129 233.791C379.934 233.468 380.618 232.983 381.181 232.337C381.905 231.448 382.71 229.308 383.595 225.915C384.56 222.442 386.652 213.636 389.871 199.5C392.767 186.898 394.537 178.901 395.181 175.508C395.905 172.116 396.267 169.854 396.267 168.723Z" fill="#1F2D16" fill-opacity="0.28"/>
<path d="M402.431 241.909L406.655 223.734L413.534 157.091H422.103L417.879 187.02C417.638 188.797 417.155 191.462 416.431 195.017C415.707 198.571 414.661 203.701 413.293 210.405H414.862C416.552 203.297 417.839 198.046 418.724 194.653C419.609 191.26 420.333 188.716 420.896 187.02L430.552 157.091H439L415.103 223.734L410.879 241.909H402.431Z" fill="#1F2D16" fill-opacity="0.28"/>
</svg>
