<svg width="600" height="400" viewBox="0 0 600 400" fill="none" xmlns="http://www.w3.org/2000/svg">
<rect width="600" height="400" fill="white"/>
<path d="M147.998 213.03C155.939 213.03 161.052 209.048 162.137 202.937C162.24 202.356 161.775 201.846 161.185 201.846H156.024C155.563 201.846 155.169 202.164 155.018 202.599C154.087 205.289 151.914 206.759 147.998 206.759C143.021 206.759 140.047 203.333 140.047 197.191C140.047 191.049 143.021 187.623 147.998 187.623C151.933 187.623 154.108 189.162 155.031 192.087C155.172 192.533 155.571 192.859 156.038 192.859H161.188C161.777 192.859 162.242 192.351 162.143 191.77C161.07 185.464 155.953 181.352 147.998 181.352C138.624 181.352 133 187.817 133 197.191C133 206.565 138.624 213.03 147.998 213.03Z" fill="black"/>
<path d="M184.683 181.352C180.222 181.352 176.731 183.098 174.856 186.33V168C174.856 167.448 174.408 167 173.856 167H168.809C168.257 167 167.809 167.448 167.809 168V211.254C167.809 211.806 168.257 212.254 168.809 212.254H173.856C174.408 212.254 174.856 211.806 174.856 211.254V195.704C174.856 190.403 177.442 187.364 182.032 187.364C186.945 187.364 188.626 190.144 188.626 196.544V211.254C188.626 211.806 189.074 212.254 189.626 212.254H194.673C195.225 212.254 195.673 211.806 195.673 211.254V193.312C195.673 185.425 191.923 181.352 184.683 181.352Z" fill="black"/>
<path d="M215.675 213.03C219.36 213.03 223.498 211.22 225.373 208.181V211.254C225.373 211.806 225.821 212.254 226.373 212.254H231.355C231.907 212.254 232.355 211.806 232.355 211.254V183.128C232.355 182.575 231.907 182.128 231.355 182.128H226.373C225.821 182.128 225.373 182.575 225.373 183.128V186.201C223.498 183.162 219.878 181.352 215.869 181.352C206.495 181.352 200.871 188.334 200.871 197.191C200.871 206.048 205.978 213.03 215.675 213.03ZM216.71 206.759C211.215 206.759 207.918 202.686 207.918 197.191C207.918 191.696 211.215 187.623 216.71 187.623C222.722 187.623 225.631 192.019 225.631 197.191C225.631 202.363 222.722 206.759 216.71 206.759Z" fill="black"/>
<path d="M253.74 206.306C250.961 206.306 249.344 205.66 249.344 200.423V188.011H255.262C255.814 188.011 256.262 187.563 256.262 187.011V183.128C256.262 182.575 255.814 182.128 255.262 182.128H249.344V174.012C249.344 173.46 248.897 173.012 248.344 173.012H243.298C242.745 173.012 242.298 173.46 242.298 174.012V182.128H238.19C237.638 182.128 237.19 182.575 237.19 183.128V187.011C237.19 187.563 237.638 188.011 238.19 188.011H242.298V202.04C242.298 212.189 248.633 212.642 252.06 212.642C253.685 212.642 255.311 212.522 256.466 212.377C256.948 212.316 257.296 211.9 257.296 211.415V207.246C257.296 206.622 256.728 206.136 256.107 206.19C255.334 206.258 254.415 206.306 253.74 206.306Z" fill="black"/>
<path d="M276.122 206.306C273.343 206.306 271.726 205.66 271.726 200.423V188.011H277.644C278.196 188.011 278.644 187.563 278.644 187.011V183.128C278.644 182.575 278.196 182.128 277.644 182.128H271.726V174.012C271.726 173.46 271.279 173.012 270.726 173.012H265.68C265.127 173.012 264.68 173.46 264.68 174.012V182.128H260.572C260.02 182.128 259.572 182.575 259.572 183.128V187.011C259.572 187.563 260.02 188.011 260.572 188.011H264.68V202.04C264.68 212.189 271.015 212.642 274.442 212.642C276.068 212.642 277.693 212.522 278.849 212.377C279.33 212.316 279.678 211.9 279.678 211.415V207.246C279.678 206.622 279.111 206.136 278.489 206.19C277.716 206.258 276.797 206.306 276.122 206.306Z" fill="black"/>
<path d="M311.83 195.639C311.83 187.17 306.011 181.352 297.413 181.352C288.233 181.352 282.285 187.558 282.285 197.191C282.285 206.953 288.168 213.03 297.672 213.03C304.41 213.03 309.805 209.614 311.25 204.607C311.421 204.015 310.948 203.462 310.333 203.462H305.013C304.634 203.462 304.294 203.68 304.095 204.002C302.888 205.96 300.88 206.888 297.672 206.888C292.564 206.888 289.461 204.302 289.267 199.518H310.71C311.232 199.518 311.667 199.116 311.705 198.594C311.788 197.443 311.83 196.624 311.83 195.639ZM289.267 194.152C289.332 189.886 292.306 186.912 297.284 186.912C302.132 186.912 304.848 189.498 304.912 194.152H289.267Z" fill="black"/>
<path d="M323.394 212.254C323.946 212.254 324.394 211.806 324.394 211.254V198.936C324.394 192.084 327.432 188.334 332.41 188.334C333.077 188.334 333.553 188.334 334.07 188.363C334.668 188.396 335.19 187.937 335.19 187.339V182.779C335.19 182.32 334.878 181.916 334.423 181.853C333.83 181.77 333.166 181.74 332.41 181.74C329.113 181.74 325.493 183.679 324.394 187.946V183.128C324.394 182.575 323.946 182.128 323.394 182.128H318.347C317.795 182.128 317.347 182.575 317.347 183.128V211.254C317.347 211.806 317.795 212.254 318.347 212.254H323.394Z" fill="black"/>
<path d="M356.861 181.352C352.594 181.352 348.586 183.291 346.711 186.201V168C346.711 167.448 346.263 167 345.711 167H340.729C340.177 167 339.729 167.448 339.729 168V211.254C339.729 211.806 340.177 212.254 340.729 212.254H345.711C346.263 212.254 346.711 211.806 346.711 211.254V208.181C348.586 211.09 352.4 213.03 356.408 213.03C365.136 213.03 371.213 206.5 371.213 197.191C371.213 187.688 365.459 181.352 356.861 181.352ZM355.374 206.759C350.073 206.759 346.453 202.88 346.453 197.191C346.453 191.502 350.073 187.623 355.374 187.623C360.546 187.623 364.166 191.566 364.166 197.191C364.166 202.815 360.546 206.759 355.374 206.759Z" fill="black"/>
<path d="M390.336 213.03C400.292 213.03 406.239 206.048 406.239 197.191C406.239 188.334 400.292 181.352 390.336 181.352C380.38 181.352 374.432 188.334 374.432 197.191C374.432 206.048 380.38 213.03 390.336 213.03ZM390.336 206.759C384.647 206.759 381.479 202.686 381.479 197.191C381.479 191.696 384.647 187.623 390.336 187.623C396.025 187.623 399.193 191.696 399.193 197.191C399.193 202.686 396.025 206.759 390.336 206.759Z" fill="black"/>
<path d="M425.029 206.306C422.249 206.306 420.633 205.66 420.633 200.423V188.011H426.55C427.103 188.011 427.55 187.563 427.55 187.011V183.128C427.55 182.575 427.103 182.128 426.55 182.128H420.633V174.012C420.633 173.46 420.185 173.012 419.633 173.012H414.586C414.034 173.012 413.586 173.46 413.586 174.012V182.128H409.479C408.927 182.128 408.479 182.575 408.479 183.128V187.011C408.479 187.563 408.927 188.011 409.479 188.011H413.586V202.04C413.586 212.189 419.922 212.642 423.348 212.642C424.974 212.642 426.6 212.522 427.755 212.377C428.236 212.316 428.585 211.9 428.585 211.415V207.246C428.585 206.622 428.017 206.136 427.396 206.19C426.622 206.258 425.704 206.306 425.029 206.306Z" fill="black"/>
<circle cx="440.897" cy="208.406" r="3.84813" fill="black"/>
<circle cx="456.289" cy="200.709" r="3.84813" fill="black"/>
<circle cx="471.682" cy="205.327" r="3.84813" fill="black"/>
</svg>
