<svg width="600" height="400" viewBox="0 0 600 400" fill="none" xmlns="http://www.w3.org/2000/svg">
<rect width="600" height="400" fill="white"/>
<path d="M196.793 162.367L150.14 169.243C148.611 169.468 147.273 170.387 146.514 171.733L130.398 200.308C129.065 202.672 129.862 205.669 132.194 207.059L179.897 235.486C182.24 236.881 185.268 236.143 186.706 233.826L216.913 185.125C218.136 183.153 217.842 180.6 216.204 178.957L201.061 163.782C199.943 162.661 198.36 162.136 196.793 162.367Z" fill="#FF4124"/>
<path fill-rule="evenodd" clip-rule="evenodd" d="M167.431 179.155C167.761 179.155 168.081 179.27 168.345 179.483C168.608 179.697 168.799 179.996 168.889 180.336L170.533 186.517C170.887 187.848 171.551 189.06 172.463 190.039C173.374 191.017 174.503 191.73 175.742 192.111L181.497 193.876C181.814 193.974 182.092 194.179 182.291 194.462C182.489 194.744 182.596 195.088 182.596 195.442C182.596 195.796 182.489 196.14 182.291 196.422C182.092 196.705 181.814 196.91 181.497 197.008L175.742 198.773C174.503 199.153 173.374 199.866 172.463 200.845C171.551 201.824 170.887 203.036 170.533 204.367L168.889 210.548C168.799 210.888 168.607 211.187 168.344 211.4C168.081 211.613 167.761 211.728 167.431 211.728C167.102 211.728 166.782 211.613 166.519 211.4C166.255 211.187 166.064 210.888 165.973 210.548L164.329 204.367C163.975 203.036 163.311 201.824 162.4 200.845C161.489 199.866 160.36 199.153 159.12 198.773L153.366 197.008C153.049 196.91 152.77 196.705 152.572 196.422C152.374 196.14 152.267 195.796 152.267 195.442C152.267 195.088 152.374 194.744 152.572 194.462C152.77 194.179 153.049 193.974 153.366 193.876L159.12 192.111C160.36 191.73 161.489 191.017 162.4 190.039C163.311 189.06 163.975 187.848 164.329 186.517L165.973 180.336C166.064 179.996 166.255 179.697 166.518 179.483C166.781 179.27 167.102 179.155 167.431 179.155ZM185.63 172.64C185.969 172.64 186.297 172.761 186.564 172.985C186.831 173.208 187.02 173.521 187.102 173.873L187.624 176.123C188.101 178.165 189.586 179.759 191.486 180.271L193.581 180.831C193.91 180.919 194.202 181.122 194.411 181.409C194.62 181.695 194.733 182.048 194.733 182.412C194.733 182.776 194.62 183.129 194.411 183.416C194.202 183.702 193.91 183.906 193.581 183.993L191.486 184.553C189.586 185.066 188.101 186.66 187.624 188.701L187.102 190.951C187.021 191.304 186.832 191.618 186.565 191.842C186.298 192.066 185.969 192.188 185.63 192.188C185.292 192.188 184.963 192.066 184.696 191.842C184.429 191.618 184.24 191.304 184.158 190.951L183.637 188.701C183.403 187.699 182.921 186.783 182.24 186.053C181.56 185.322 180.708 184.804 179.774 184.553L177.679 183.993C177.351 183.906 177.058 183.702 176.85 183.416C176.641 183.129 176.527 182.776 176.527 182.412C176.527 182.048 176.641 181.695 176.85 181.409C177.058 181.122 177.351 180.919 177.679 180.831L179.774 180.271C180.708 180.02 181.56 179.502 182.24 178.772C182.921 178.041 183.403 177.126 183.637 176.123L184.158 173.873C184.24 173.521 184.43 173.208 184.697 172.985C184.963 172.761 185.292 172.64 185.63 172.64V172.64ZM182.597 201.957C182.916 201.956 183.226 202.064 183.485 202.264C183.743 202.464 183.936 202.746 184.037 203.071L184.834 205.64C185.137 206.61 185.845 207.375 186.751 207.698L189.143 208.556C189.444 208.665 189.706 208.872 189.891 209.149C190.077 209.426 190.177 209.759 190.177 210.1C190.177 210.441 190.077 210.774 189.891 211.051C189.706 211.328 189.444 211.536 189.143 211.644L186.751 212.502C185.847 212.828 185.135 213.588 184.834 214.561L184.035 217.13C183.934 217.453 183.741 217.734 183.483 217.934C183.225 218.133 182.915 218.24 182.597 218.24C182.279 218.24 181.97 218.133 181.712 217.934C181.454 217.734 181.261 217.453 181.159 217.13L180.361 214.561C180.212 214.081 179.961 213.646 179.628 213.289C179.296 212.931 178.89 212.662 178.444 212.502L176.052 211.644C175.75 211.536 175.489 211.328 175.303 211.051C175.118 210.774 175.018 210.441 175.018 210.1C175.018 209.759 175.118 209.426 175.303 209.149C175.489 208.872 175.75 208.665 176.052 208.556L178.444 207.698C179.348 207.373 180.059 206.613 180.361 205.64L181.159 203.071C181.26 202.747 181.453 202.464 181.711 202.265C181.969 202.065 182.279 201.957 182.597 201.957V201.957Z" fill="white"/>
<path d="M237.437 217.5H245.456V202.226C245.565 197.862 247.801 195.407 253.202 195.407H255.002V187.879H253.365C249.656 187.879 246.601 189.189 245.292 192.952H245.019L244.692 188.261H237.437V217.5ZM267.734 217.991C271.935 217.991 275.481 215.973 276.899 212.154H277.281L277.608 217.5H285.3V188.261H277.281V204.408C277.281 208.281 274.935 211.499 270.898 211.499C266.916 211.499 265.334 208.99 265.334 204.353V188.261H257.315V206.481C257.315 213.954 260.97 217.991 267.734 217.991ZM307.987 218.046C314.97 218.046 319.661 212.918 319.661 202.881C319.661 192.789 314.97 187.716 307.987 187.716C303.46 187.716 300.078 189.952 298.714 193.334H298.277V177.733H290.259V217.5H297.95L298.277 212.427H298.714C300.078 215.754 303.46 218.046 307.987 218.046ZM304.932 211.554C300.459 211.554 298.332 208.008 298.332 204.299V201.462C298.332 197.753 300.459 194.207 304.932 194.207C308.86 194.207 311.478 196.935 311.478 202.881C311.478 208.827 308.86 211.554 304.932 211.554ZM321.204 226.61H326.113C331.132 226.61 334.732 224.973 336.969 218.864L348.37 188.261H339.805L334.787 203.917L333.914 207.026H333.641L332.714 203.917L327.368 188.261H318.585L329.768 215.209L329.059 217.009C328.295 219.082 326.986 220.009 324.586 220.009H321.204V226.61Z" fill="#FF4124"/>
<path d="M359.987 217.991C364.515 217.991 367.897 215.754 369.261 212.372H369.697L369.97 217.5H377.716V177.733H369.697V193.334H369.261C367.897 189.952 364.515 187.716 359.987 187.716C353.005 187.716 348.313 192.789 348.313 202.881C348.313 212.918 353.005 217.991 359.987 217.991ZM363.042 211.499C359.114 211.499 356.496 208.772 356.496 202.881C356.496 196.935 359.114 194.207 363.042 194.207C367.515 194.207 369.588 197.698 369.588 201.462V204.244C369.588 208.008 367.515 211.499 363.042 211.499ZM395.871 217.991C405.09 217.991 410.49 211.936 410.49 202.881C410.49 193.389 404.599 187.716 395.871 187.716C386.597 187.716 381.197 193.825 381.197 202.881C381.197 212.372 387.088 217.991 395.871 217.991ZM395.816 211.499C391.834 211.499 389.27 208.663 389.27 202.881C389.27 197.044 391.889 194.262 395.871 194.262C399.853 194.262 402.362 197.098 402.362 202.881C402.362 208.717 399.744 211.499 395.816 211.499ZM427.259 217.991C434.95 217.991 440.514 213.572 440.842 206.699H433.041C432.714 209.536 430.641 211.445 427.259 211.445C423.44 211.445 420.876 208.608 420.876 202.881C420.876 197.644 423.058 194.262 427.313 194.262C430.204 194.262 432.441 195.844 432.932 198.898H440.787C440.46 192.298 435.059 187.716 427.531 187.716C418.531 187.716 412.748 193.716 412.748 202.881C412.748 211.99 418.476 217.991 427.259 217.991ZM455.856 218.046C464.093 218.046 469.112 215.154 469.112 208.717C469.112 201.571 463.602 200.371 457.547 199.553C453.238 199.008 451.383 198.353 451.383 196.171C451.383 194.371 452.91 193.116 455.911 193.116C458.802 193.116 460.657 194.48 460.657 196.935H468.512C468.348 191.152 463.602 187.716 456.129 187.716C448.492 187.716 443.364 190.825 443.364 196.989C443.364 203.426 448.546 204.953 455.038 205.826C459.184 206.426 461.038 206.808 461.038 209.481C461.038 211.445 459.347 212.645 456.074 212.645C452.91 212.645 450.51 211.39 450.456 208.281H442.6C442.546 214.118 447.346 218.046 455.856 218.046Z" fill="#1E293B"/>
</svg>
